<svg xmlns="http://www.w3.org/2000/svg" width="29.893" height="29.432" viewBox="0 0 29.893 29.432">
  <path id="icons8-github" d="M17.947,3a14.938,14.938,0,0,0-3.622,29.432,2.181,2.181,0,0,1-.115-.726V29.151H12.332a2.6,2.6,0,0,1-2.373-1.257c-.489-.908-.574-2.3-1.787-3.146-.36-.283-.086-.605.329-.562a3.917,3.917,0,0,1,2,1.522,1.92,1.92,0,0,0,1.988.958,14.281,14.281,0,0,0,2.106-.151,4.689,4.689,0,0,1,1.978-2.444c-4.977-.512-7.352-2.988-7.352-6.35A6.109,6.109,0,0,1,10.883,13.7c-.344-1.171-.776-3.559.132-4.468a5.2,5.2,0,0,1,3.918,1.845,11.3,11.3,0,0,1,7.269,0,5.2,5.2,0,0,1,3.921-1.847c.912.91.475,3.308.127,4.476A6.107,6.107,0,0,1,27.9,17.722c0,3.359-2.372,5.834-7.341,6.349a5.243,5.243,0,0,1,2.365,4.23v3.405a2.191,2.191,0,0,1-.044.334A14.938,14.938,0,0,0,17.947,3Z" transform="translate(-3 -3)" fill="#fff"/>
</svg>
