<svg xmlns="http://www.w3.org/2000/svg" width="29.433" height="29.432" viewBox="0 0 29.433 29.432">
  <g id="icons8-linkedin-circled" transform="translate(0 0)">
    <path id="Subtraction_2" data-name="Subtraction 2" d="M14.717,29.432A14.716,14.716,0,0,1,4.31,4.31,14.716,14.716,0,1,1,25.122,25.122,14.619,14.619,0,0,1,14.717,29.432ZM17.659,13.98a2.21,2.21,0,0,1,2.207,2.207v5.887H22.81v-6.99a4.045,4.045,0,0,0-7.358-2.322V11.037H12.509V22.074h2.944V16.187A2.21,2.21,0,0,1,17.659,13.98Zm-10.3-2.944V22.074H10.3V11.037Zm1.48-4.414a1.412,1.412,0,0,0-1.48,1.471A1.412,1.412,0,0,0,8.8,9.565h.016A1.413,1.413,0,0,0,10.3,8.093,1.408,1.408,0,0,0,8.838,6.622Z" transform="translate(0 0)" fill="#fff"/>
  </g>
</svg>
