<svg xmlns="http://www.w3.org/2000/svg" width="29.435" height="29.435" viewBox="0 0 29.435 29.435">
  <g id="email-svgrepo-com" transform="translate(0)">
    <g id="Group_10" data-name="Group 10" transform="translate(0 0)">
      <path id="Path_6" data-name="Path 6" d="M14.718,0A14.717,14.717,0,1,0,29.436,14.717,14.717,14.717,0,0,0,14.718,0Zm0,5.169L23.428,10.6H6.009Zm8.818,14.1h0a1.577,1.577,0,0,1-1.577,1.577H7.479A1.577,1.577,0,0,1,5.9,19.272V10.946a1.569,1.569,0,0,1,.025-.27l8.321,5.189c.01.006.021.011.032.017l.033.018a.873.873,0,0,0,.181.071l.019,0a.9.9,0,0,0,.205.026h0a.882.882,0,0,0,.205-.026l.019,0a.882.882,0,0,0,.181-.071l.033-.018c.01-.006.021-.01.032-.017l8.321-5.189a1.567,1.567,0,0,1,.025.27Z" transform="translate(-0.001)" fill="#fff"/>
    </g>
  </g>
</svg>
