<svg xmlns="http://www.w3.org/2000/svg" width="39.001" height="39" viewBox="0 0 39.001 39">
  <path id="Intersection_1" data-name="Intersection 1" d="M8,39a8,8,0,0,1-8-8V8A8,8,0,0,1,8,0H31a8,8,0,0,1,8,8V31a8,8,0,0,1-8,8ZM13.9,18.75h2.466V32.211h5.283V18.75h3.3l.911-4.052H21.648V13.242a2.859,2.859,0,0,1,.515-1.994,2.617,2.617,0,0,1,1.8-.553,4.319,4.319,0,0,1,2.25.885l.962-3.815a14.443,14.443,0,0,0-4.238-.977,9.159,9.159,0,0,0-3.955.758,4.736,4.736,0,0,0-2.064,2.2,7.913,7.913,0,0,0-.553,3.407V14.7H13.9Z" fill="#fff"/>
</svg>
