<svg xmlns="http://www.w3.org/2000/svg" width="39.001" height="39" viewBox="0 0 39.001 39">
  <path id="Subtraction_4" data-name="Subtraction 4" d="M31,39H8a8.009,8.009,0,0,1-8-8V8A8.009,8.009,0,0,1,8,0H31a8.009,8.009,0,0,1,8,8V31A8.009,8.009,0,0,1,31,39ZM17.018,26.393h0l.049,2.737c0,.436-.261.657-.775.657a.5.5,0,0,0-.392.162,1.164,1.164,0,0,0-.189.769h8.807a1.165,1.165,0,0,0-.189-.769.5.5,0,0,0-.392-.162c-.514,0-.775-.221-.775-.657l.049-3.835a3.564,3.564,0,0,0-.871-2.63c2.636-.314,5.662-1.38,5.662-6.9a5.969,5.969,0,0,0-1.258-3.78,5.347,5.347,0,0,0-.145-3.67h0a.9.9,0,0,0-.279-.034,5.576,5.576,0,0,0-3.108,1.459,9.965,9.965,0,0,0-6.194,0A5.576,5.576,0,0,0,13.91,8.28a.882.882,0,0,0-.279.034,5.345,5.345,0,0,0-.145,3.67,5.968,5.968,0,0,0-1.258,3.78c0,5.525,3,6.591,5.613,6.9a3.352,3.352,0,0,0-.774,1.918,3.421,3.421,0,0,1-1.4.336,2.392,2.392,0,0,1-2.182-1.542,2.771,2.771,0,0,0-1.936-1.425s-.472,0-.543.213c-.051.153.115.377.5.663a3.548,3.548,0,0,1,1.354,2.027,2.742,2.742,0,0,0,2.762,1.726,5.715,5.715,0,0,0,1.4-.191Z" fill="#fff"/>
</svg>
