<svg id="instagram-svgrepo-com" xmlns="http://www.w3.org/2000/svg" width="38.312" height="38.282" viewBox="0 0 38.312 38.282">
  <g id="Group_30" data-name="Group 30" transform="translate(14.948 14.918)">
    <g id="Group_29" data-name="Group 29">
      <path id="Path_9" data-name="Path 9" d="M204.4,198.362a4.167,4.167,0,0,0-6.806,0,4.317,4.317,0,0,0-.79,2.461,4.193,4.193,0,1,0,8.386,0A4.316,4.316,0,0,0,204.4,198.362Z" transform="translate(-196.8 -196.6)" fill="#fff"/>
    </g>
  </g>
  <g id="Group_32" data-name="Group 32" transform="translate(9.419 16.71)">
    <g id="Group_31" data-name="Group 31">
      <path id="Path_10" data-name="Path 10" d="M139.768,220.2a5.974,5.974,0,0,1,.486,2.431,6.532,6.532,0,1,1-13.064,0,5.869,5.869,0,0,1,.486-2.431H124v9.753a2.467,2.467,0,0,0,2.4,2.4h14.644a2.467,2.467,0,0,0,2.4-2.4V220.2Z" transform="translate(-124 -220.2)" fill="#fff"/>
    </g>
  </g>
  <g id="Group_34" data-name="Group 34" transform="translate(24.245 9.935)">
    <g id="Group_33" data-name="Group 33">
      <path id="Path_11" data-name="Path 11" d="M322.724,131.03H319.2v4.041h4.01V131Z" transform="translate(-319.2 -131)" fill="#fff"/>
    </g>
  </g>
  <g id="Group_36" data-name="Group 36" transform="translate(0 0)">
    <g id="Group_35" data-name="Group 35">
      <path id="Path_12" data-name="Path 12" d="M28.681.2H9.6A9.621,9.621,0,0,0,0,9.8v19.11a9.615,9.615,0,0,0,9.6,9.57h19.11a9.621,9.621,0,0,0,9.6-9.6V9.8A9.667,9.667,0,0,0,28.681.2ZM30.99,16.88h0v9.783a4.462,4.462,0,0,1-4.527,4.527H11.819a4.462,4.462,0,0,1-4.527-4.527V12.019a4.462,4.462,0,0,1,4.527-4.527H26.463a4.462,4.462,0,0,1,4.527,4.527V16.88Z" transform="translate(0 -0.2)" fill="#fff"/>
    </g>
  </g>
</svg>
