<svg xmlns="http://www.w3.org/2000/svg" width="39.001" height="39" viewBox="0 0 39.001 39">
  <path id="Subtraction_3" data-name="Subtraction 3" d="M31,39H8a8.009,8.009,0,0,1-8-8V8A8.009,8.009,0,0,1,8,0H31a8.009,8.009,0,0,1,8,8V31A8.009,8.009,0,0,1,31,39ZM23.768,19.724c1.943,0,2.1,1.6,2.1,3.69v7.466a.385.385,0,0,0,.384.384h4.772a.385.385,0,0,0,.384-.384V22.457c0-3.807-.726-7.7-6.11-7.7a5.578,5.578,0,0,0-4.2,1.763v-1a.385.385,0,0,0-.384-.384H16.133a.385.385,0,0,0-.384.384V30.881a.385.385,0,0,0,.384.384H20.9a.385.385,0,0,0,.384-.384v-7.6C21.288,20.722,21.983,19.724,23.768,19.724ZM8.356,15.139a.384.384,0,0,0-.383.384V30.881a.384.384,0,0,0,.383.384h4.781a.385.385,0,0,0,.384-.384V15.523a.385.385,0,0,0-.384-.384ZM10.748,7.5A3.152,3.152,0,1,0,13.9,10.655,3.156,3.156,0,0,0,10.748,7.5Z" fill="#fff"/>
</svg>
