<svg xmlns="http://www.w3.org/2000/svg" width="39" height="39" viewBox="0 0 39 39">
  <path id="Subtraction_6" data-name="Subtraction 6" d="M31,39H8a8.009,8.009,0,0,1-8-8V8A8.009,8.009,0,0,1,8,0H31a8.009,8.009,0,0,1,8,8V31A8.009,8.009,0,0,1,31,39ZM18.147,23.817v8.572h3.814V23.817Zm1.867-4.45h0l6.3,6.306,2.543-2.531-4.636-4.49H30.74V15.041H24.259l4.615-4.368L26.33,8.081l-4.389,4.49V6.183H18.126v6.388l-4.389-4.49-2.544,2.592,4.615,4.368H9.285v3.613h6.522l-4.635,4.49,2.543,2.531,6.3-6.306Z" fill="#fff"/>
</svg>
