<svg xmlns="http://www.w3.org/2000/svg" width="39.001" height="39" viewBox="0 0 39.001 39">
  <path id="Subtraction_5" data-name="Subtraction 5" d="M31,39H8a8.009,8.009,0,0,1-8-8V8A8.009,8.009,0,0,1,8,0H31a8.009,8.009,0,0,1,8,8V31A8.009,8.009,0,0,1,31,39ZM19.469,9.725a66.23,66.23,0,0,0-9.488.695,3.155,3.155,0,0,0-2.656,2.53,36.861,36.861,0,0,0-.506,6.261,36.841,36.841,0,0,0,.506,6.262A3.155,3.155,0,0,0,9.981,28a67.425,67.425,0,0,0,9.488.7,66.012,66.012,0,0,0,9.487-.7,3.155,3.155,0,0,0,2.656-2.53,43.338,43.338,0,0,0,.57-6.262,35.891,35.891,0,0,0-.57-6.261,3.153,3.153,0,0,0-2.656-2.53A66.438,66.438,0,0,0,19.469,9.725Zm-2.53,13.914V14.784l7.59,4.427L16.94,23.639Z" fill="#fff"/>
</svg>
