<svg id="location-pin-svgrepo-com" xmlns="http://www.w3.org/2000/svg" width="24.504" height="39.03" viewBox="0 0 24.504 39.03">
  <path id="Path_13" data-name="Path 13" d="M91.548,0h-.056A12.235,12.235,0,0,0,79.268,12.219c0,4.417,2.011,10.245,5.978,17.325A96.3,96.3,0,0,0,91.2,38.852a.44.44,0,0,0,.352.177h.012a.44.44,0,0,0,.354-.2c.029-.045,2.99-4.516,5.911-9.985,3.943-7.382,5.942-12.977,5.942-16.629A12.236,12.236,0,0,0,91.548,0ZM97.19,12.518a5.67,5.67,0,1,1-5.67-5.67A5.677,5.677,0,0,1,97.19,12.518Z" transform="translate(-79.268)" fill="#57e2e5"/>
</svg>
