<svg id="email-svgrepo-com" xmlns="http://www.w3.org/2000/svg" width="57.491" height="39.03" viewBox="0 0 57.491 39.03">
  <path id="Path_14" data-name="Path 14" d="M50.469,12.089H7.022A7.031,7.031,0,0,0,0,19.111V44.1a7.031,7.031,0,0,0,7.022,7.022H50.469A7.031,7.031,0,0,0,57.491,44.1V19.112A7.03,7.03,0,0,0,50.469,12.089ZM47.037,16.67,28.746,28.455,10.454,16.67Zm3.431,29.868H7.022A2.444,2.444,0,0,1,4.581,44.1V19.242l22.751,14.63c.031.019.063.032.095.05s.066.036.1.053a2.639,2.639,0,0,0,.544.212c.019.005.038.008.057.012a2.687,2.687,0,0,0,.616.078h0a2.646,2.646,0,0,0,.616-.078c.019,0,.038-.007.057-.012a2.656,2.656,0,0,0,.544-.212c.034-.017.067-.034.1-.053s.064-.031.095-.05l22.751-14.63V44.1A2.446,2.446,0,0,1,50.469,46.538Z" transform="translate(0 -12.089)" fill="#57e2e5"/>
</svg>
