<svg xmlns="http://www.w3.org/2000/svg" width="46" height="42" viewBox="0 0 46 42">
  <g id="calendar-svgrepo-com" transform="translate(0 -12.5)">
    <path id="Path_179" data-name="Path 179" d="M40.14,16.407H28.284V12.5H25.235v3.907H14.9V12.5H11.856v3.907H0v6.349H40.14Z" transform="translate(0 0)" fill="#fff"/>
    <path id="Path_180" data-name="Path 180" d="M97.091,112.5v29.3H60v2.93h40.14V112.5Z" transform="translate(-54.14 -90.233)" fill="#fff"/>
    <path id="Path_181" data-name="Path 181" d="M40.14,147.5H0v22.953H40.14ZM13.465,165.814H8.384V160.93h5.081Zm0-8.791H8.384V152.14h5.081Zm9.146,8.791H17.529V160.93H22.61Zm0-8.791H17.529V152.14H22.61Zm9.146,8.791H26.675V160.93h5.081Zm0-8.791H26.675V152.14h5.081Z" transform="translate(0 -121.814)" fill="#fff"/>
  </g>
</svg>
