<svg xmlns="http://www.w3.org/2000/svg" width="45.607" height="45.604" viewBox="0 0 45.607 45.604">
  <g id="link-svgrepo-com" transform="translate(-0.001 -0.011)">
    <path id="Path_214" data-name="Path 214" d="M152.063,3.667l-1.587-1.4a8.95,8.95,0,0,0-12.632.759L133.3,8.147a2.809,2.809,0,0,0,.238,3.959l.426.378a2.8,2.8,0,0,0,3.96-.238l4.542-5.124a2.776,2.776,0,0,1,3.911-.236l1.585,1.406a2.772,2.772,0,0,1,.236,3.91l-9.931,11.2a2.766,2.766,0,0,1-3.345.623,3.03,3.03,0,0,0-3.661.682l-.077.087a3.033,3.033,0,0,0,.865,4.7,8.936,8.936,0,0,0,10.843-2l9.931-11.2A8.961,8.961,0,0,0,152.063,3.667Z" transform="translate(-109.464 0)" fill="#fffcf9"/>
    <path id="Path_215" data-name="Path 215" d="M21.531,112.377,21.1,112a2.808,2.808,0,0,0-3.959.239l-4.54,5.123A2.775,2.775,0,0,1,8.7,117.6l-1.587-1.408a2.769,2.769,0,0,1-.236-3.908l9.931-11.2a2.776,2.776,0,0,1,3.295-.647,3.194,3.194,0,0,0,3.791-.748l.036-.04a2.988,2.988,0,0,0-.827-4.617,8.916,8.916,0,0,0-10.918,1.955l-9.932,11.2h0a8.96,8.96,0,0,0,.759,12.633L4.6,122.22a8.961,8.961,0,0,0,12.634-.76l4.54-5.123A2.8,2.8,0,0,0,21.531,112.377Z" transform="translate(0 -78.853)" fill="#fffcf9"/>
  </g>
</svg>
