<svg id="gear-svgrepo-com" xmlns="http://www.w3.org/2000/svg" width="46" height="45" viewBox="0 0 46 45">
  <g id="Group_71" data-name="Group 71">
    <path id="Path_174" data-name="Path 174" d="M45.551,42.516l-1.716-1.041a.372.372,0,0,1,.017-.644l1.767-.949a.729.729,0,0,0-.175-1.349l-1.949-.453a.366.366,0,0,1-.268-.255.373.373,0,0,1,.088-.362l1.391-1.456a.734.734,0,0,0,.132-.818.715.715,0,0,0-.71-.411l-1.992.18A.363.363,0,0,1,41.8,34.8a.374.374,0,0,1-.027-.372l.879-1.821a.734.734,0,0,0-.124-.819.71.71,0,0,0-.8-.168l-1.84.8a.36.36,0,0,1-.365-.047.372.372,0,0,1-.139-.345l.281-2.007a.729.729,0,0,0-.367-.74.709.709,0,0,0-.813.091L36.982,30.7a.361.361,0,0,1-.361.07.368.368,0,0,1-.237-.285l-.344-2a.722.722,0,0,0-.575-.589.713.713,0,0,0-.745.341l-1.027,1.739a.362.362,0,0,1-.635-.017l-.936-1.791a.713.713,0,0,0-1.331.178l-.447,1.976a.367.367,0,0,1-.252.272.361.361,0,0,1-.357-.089L28.3,29.1a.709.709,0,0,0-.807-.134.728.728,0,0,0-.405.72l.177,2.019a.372.372,0,0,1-.157.337.36.36,0,0,1-.367.027l-1.8-.892a.709.709,0,0,0-.808.125.729.729,0,0,0-.222.5l-.5-1.138a.41.41,0,0,1,.043-.407.4.4,0,0,1,.371-.162L26,30.361a.783.783,0,0,0,.793-.424.805.805,0,0,0-.115-.9l-1.472-1.648a.409.409,0,0,1-.083-.4.4.4,0,0,1,.3-.27l2.154-.423a.792.792,0,0,0,.626-.651.8.8,0,0,0-.384-.821l-1.9-1.107a.408.408,0,0,1,.005-.706l1.919-1.077a.8.8,0,0,0-.219-1.477L25.477,20a.4.4,0,0,1-.3-.274.41.41,0,0,1,.089-.4l1.5-1.626a.8.8,0,0,0,.128-.9.783.783,0,0,0-.787-.436l-2.181.238a.4.4,0,0,1-.368-.167.41.41,0,0,1-.037-.407l.928-2.015a.8.8,0,0,0-.152-.9.778.778,0,0,0-.881-.168l-2,.91a.4.4,0,0,1-.4-.044.408.408,0,0,1-.159-.376l.268-2.207a.8.8,0,0,0-.418-.8.777.777,0,0,0-.889.116l-1.626,1.492a.4.4,0,0,1-.395.084.4.4,0,0,1-.266-.307L17.107,9.63A.791.791,0,0,0,16.465,9a.782.782,0,0,0-.81.389l-1.092,1.929a.4.4,0,0,1-.7-.005L12.8,9.363a.783.783,0,0,0-1.457.222l-.45,2.176a.4.4,0,0,1-.271.3.4.4,0,0,1-.394-.09l-1.6-1.517a.778.778,0,0,0-.888-.13.8.8,0,0,0-.43.8l.235,2.211a.408.408,0,0,1-.165.373.4.4,0,0,1-.4.038l-1.988-.941a.778.778,0,0,0-.884.154.8.8,0,0,0-.166.893l.9,2.029a.41.41,0,0,1-.043.407.4.4,0,0,1-.371.162l-2.177-.272a.783.783,0,0,0-.793.424.8.8,0,0,0,.115.9l1.472,1.648a.41.41,0,0,1,.083.4.4.4,0,0,1-.3.27l-2.154.423a.792.792,0,0,0-.626.651.8.8,0,0,0,.384.821l1.9,1.107a.408.408,0,0,1-.005.706L.405,24.61a.8.8,0,0,0-.4.816.792.792,0,0,0,.616.661l2.147.456a.4.4,0,0,1,.3.274.41.41,0,0,1-.089.4l-1.5,1.626a.8.8,0,0,0-.128.9.784.784,0,0,0,.787.436l2.181-.238a.4.4,0,0,1,.368.167.41.41,0,0,1,.037.407L3.8,32.528a.8.8,0,0,0,.152.9.778.778,0,0,0,.881.168l2-.91a.4.4,0,0,1,.4.044A.408.408,0,0,1,7.4,33.1L7.13,35.308a.8.8,0,0,0,.418.8A.777.777,0,0,0,8.437,36L10.063,34.5a.4.4,0,0,1,.395-.084.4.4,0,0,1,.266.307l.418,2.183a.791.791,0,0,0,.643.634.782.782,0,0,0,.81-.389l1.092-1.929a.4.4,0,0,1,.7.005l1.063,1.945a.783.783,0,0,0,1.457-.222l.45-2.176a.4.4,0,0,1,.271-.3.4.4,0,0,1,.394.09l1.6,1.517a.778.778,0,0,0,.888.13.8.8,0,0,0,.43-.8L20.7,33.2a.408.408,0,0,1,.165-.373.4.4,0,0,1,.4-.038l1.988.941a.778.778,0,0,0,.884-.154.8.8,0,0,0,.231-.51l.381.906a.374.374,0,0,1-.046.37.362.362,0,0,1-.341.141l-1.98-.285a.714.714,0,0,0-.73.372.734.734,0,0,0,.09.824l1.314,1.528a.373.373,0,0,1,.069.366.366.366,0,0,1-.281.241l-1.97.349a.722.722,0,0,0-.581.583.73.73,0,0,0,.336.755l1.716,1.041a.372.372,0,0,1-.017.644l-1.767.949a.729.729,0,0,0,.175,1.35l1.949.453a.367.367,0,0,1,.268.255.373.373,0,0,1-.088.362l-1.391,1.456a.734.734,0,0,0-.132.818.715.715,0,0,0,.71.411l1.992-.18a.363.363,0,0,1,.333.159.374.374,0,0,1,.027.372l-.879,1.821a.734.734,0,0,0,.124.819.709.709,0,0,0,.8.168l1.84-.8a.36.36,0,0,1,.365.047.372.372,0,0,1,.139.345l-.281,2.007a.729.729,0,0,0,.367.74.709.709,0,0,0,.813-.091L29.2,51.037a.361.361,0,0,1,.361-.07.368.368,0,0,1,.237.285l.344,2a.722.722,0,0,0,.575.589.713.713,0,0,0,.745-.341l1.027-1.739a.362.362,0,0,1,.635.017l.936,1.791a.713.713,0,0,0,1.331-.178l.447-1.976a.367.367,0,0,1,.252-.272.361.361,0,0,1,.357.089l1.436,1.41a.709.709,0,0,0,.807.134.728.728,0,0,0,.405-.72l-.177-2.019a.372.372,0,0,1,.157-.337.36.36,0,0,1,.367-.027l1.8.892a.709.709,0,0,0,.808-.125.733.733,0,0,0,.166-.812l-.784-1.865a.374.374,0,0,1,.046-.37.362.362,0,0,1,.341-.141l1.98.285a.714.714,0,0,0,.73-.372.734.734,0,0,0-.09-.824L43.124,44.81a.373.373,0,0,1-.069-.366.366.366,0,0,1,.281-.241l1.97-.349a.722.722,0,0,0,.581-.583A.729.729,0,0,0,45.551,42.516ZM14.124,30.188a6.918,6.918,0,1,1,6.824-6.918A6.871,6.871,0,0,1,14.124,30.188ZM32.976,47.173a6.307,6.307,0,1,1,6.335-6.188A6.268,6.268,0,0,1,32.976,47.173Z" transform="translate(0 -8.952)" fill="#fff"/>
  </g>
</svg>
