<svg xmlns="http://www.w3.org/2000/svg" width="29.432" height="29.432" viewBox="0 0 29.432 29.432">
  <path id="XMLID_1666_" d="M14.716,0A14.716,14.716,0,1,0,29.432,14.716,14.718,14.718,0,0,0,14.716,0ZM15.9,26.809a.625.625,0,0,0-.224.032V19.9c1.664-.032,3.167-.064,4.543-.16A18.342,18.342,0,0,1,15.9,26.809Zm-2.367,0a18.491,18.491,0,0,1-4.319-7.07c1.344.1,2.879.16,4.543.16v6.942C13.692,26.841,13.628,26.809,13.532,26.809ZM2.559,14.716a14.477,14.477,0,0,1,.224-2.367c.7-.128,2.047-.32,3.935-.512a17,17,0,0,0-.256,2.911,20.225,20.225,0,0,0,.224,2.879c-1.855-.192-3.231-.384-3.935-.512A20.2,20.2,0,0,1,2.559,14.716Zm5.854,0a15.594,15.594,0,0,1,.32-3.071c1.472-.1,3.135-.192,5.023-.192v6.526c-1.855-.032-3.551-.1-5.055-.224A17.83,17.83,0,0,1,8.414,14.716ZM15.868,2.623a19.5,19.5,0,0,1,4.319,7.07c-1.344-.1-2.847-.16-4.511-.16V2.591C15.74,2.591,15.8,2.623,15.868,2.623Zm-2.111-.032V9.533c-1.664.032-3.167.064-4.511.16a19.556,19.556,0,0,1,4.287-7.07C13.628,2.623,13.692,2.591,13.756,2.591Zm1.919,15.388V11.453c1.855.032,3.551.1,5.023.192a15.67,15.67,0,0,1,.032,6.142C19.259,17.883,17.563,17.947,15.676,17.979Zm7.006-6.142c1.887.192,3.231.384,3.935.512a11.663,11.663,0,0,1,.256,2.367,14.477,14.477,0,0,1-.224,2.367c-.7.128-2.047.32-3.935.512a17.056,17.056,0,0,0,.224-2.911A16.534,16.534,0,0,0,22.682,11.837ZM26.041,10.3c-.9-.128-2.175-.288-3.807-.448A21.008,21.008,0,0,0,19,3.327,12.192,12.192,0,0,1,26.041,10.3ZM10.429,3.327A19.8,19.8,0,0,0,7.2,9.821c-1.6.128-2.879.32-3.807.448A12.321,12.321,0,0,1,10.429,3.327Zm-7.038,15.8c.9.128,2.175.288,3.775.448a19.8,19.8,0,0,0,3.2,6.494A12.305,12.305,0,0,1,3.391,19.131Zm15.676,6.942a19.609,19.609,0,0,0,3.2-6.462c1.6-.128,2.879-.32,3.775-.448A12.346,12.346,0,0,1,19.067,26.073Z" fill="#fff"/>
</svg>
