<svg id="Group_57" data-name="Group 57" xmlns="http://www.w3.org/2000/svg" width="96.4" height="84.33" viewBox="0 0 96.4 84.33">
  <g id="Layer_2" data-name="Layer 2" transform="translate(0 0)">
    <g id="Object">
      <path id="Path_21" data-name="Path 21" d="M366.321,2.105a8.283,8.283,0,0,1,2.3,4.574A8.3,8.3,0,0,1,363.855,4.8,8.269,8.269,0,0,1,361.55.23,8.3,8.3,0,0,1,366.321,2.105Z" transform="translate(-290.754 -0.189)" fill="#fff"/>
      <path id="Path_22" data-name="Path 22" d="M302.3,368.238a8.718,8.718,0,0,0-1.761,4.715c0,.032,3.529-.957,5.118-3.343a6.13,6.13,0,0,0,.837-4.78A14.626,14.626,0,0,0,302.3,368.238Z" transform="translate(-241.757 -292.706)" fill="#fff"/>
      <path id="Path_23" data-name="Path 23" d="M304.681,410.122a6,6,0,0,1-4.261-2.854,19.5,19.5,0,0,1,6.228-.612,7.929,7.929,0,0,1,4.6,2.169A11.7,11.7,0,0,1,304.681,410.122Z" transform="translate(-241.301 -327.115)" fill="#fff"/>
      <path id="Path_24" data-name="Path 24" d="M341.66,350.157a8.547,8.547,0,0,0-.72,4.845,9.21,9.21,0,0,0,4.152-4.08,6.08,6.08,0,0,0-.123-4.762A13.3,13.3,0,0,0,341.66,350.157Z" transform="translate(-274.306 -277.321)" fill="#fff"/>
      <path id="Path_25" data-name="Path 25" d="M345.681,390.267a5.917,5.917,0,0,1-4.551-2.043,17.584,17.584,0,0,1,5.732-1.634,7.774,7.774,0,0,1,4.78,1.321A10.97,10.97,0,0,1,345.681,390.267Z" transform="translate(-274.029 -310.629)" fill="#fff"/>
      <path id="Path_26" data-name="Path 26" d="M374.425,327.342a8.481,8.481,0,0,0,.238,4.81,8.9,8.9,0,0,0,3.2-4.655,6.113,6.113,0,0,0-1-4.6A12.643,12.643,0,0,0,374.425,327.342Z" transform="translate(-301.208 -258.153)" fill="#fff"/>
      <path id="Path_27" data-name="Path 27" d="M381.316,363.349a5.806,5.806,0,0,1-4.726-1.205,16.636,16.636,0,0,1,5.169-2.556,7.677,7.677,0,0,1,4.847.459A10.574,10.574,0,0,1,381.316,363.349Z" transform="translate(-301.268 -288.222)" fill="#fff"/>
      <path id="Path_28" data-name="Path 28" d="M400.638,300.655a8.4,8.4,0,0,0,1.11,4.625A8.8,8.8,0,0,0,404,300.208a6.072,6.072,0,0,0-1.78-4.3A12.063,12.063,0,0,0,400.638,300.655Z" transform="translate(-321.076 -237.683)" fill="#fff"/>
      <path id="Path_29" data-name="Path 29" d="M411.384,330.47a5.709,5.709,0,0,1-4.784-.352,16.045,16.045,0,0,1,4.537-3.374,7.6,7.6,0,0,1,4.8-.4A10.457,10.457,0,0,1,411.384,330.47Z" transform="translate(-325.998 -262.399)" fill="#fff"/>
      <path id="Path_30" data-name="Path 30" d="M420.437,270.927a8.268,8.268,0,0,0,1.889,4.307,8.752,8.752,0,0,0,1.309-5.334,5.946,5.946,0,0,0-2.472-3.879A11.959,11.959,0,0,0,420.437,270.927Z" transform="translate(-337.367 -213.688)" fill="#fff"/>
      <path id="Path_31" data-name="Path 31" d="M435.65,292.646a5.658,5.658,0,0,1-4.72.494,15.626,15.626,0,0,1,3.837-4.083,7.577,7.577,0,0,1,4.62-1.232A10.515,10.515,0,0,1,435.65,292.646Z" transform="translate(-346.048 -231.495)" fill="#fff"/>
      <path id="Path_32" data-name="Path 32" d="M433.664,238.945a8.122,8.122,0,0,0,2.576,3.87,8.742,8.742,0,0,0,.384-5.454A5.835,5.835,0,0,0,433.555,234,11.946,11.946,0,0,0,433.664,238.945Z" transform="translate(-348.034 -187.995)" fill="#fff"/>
      <path id="Path_33" data-name="Path 33" d="M453.884,251.167a5.63,5.63,0,0,1-4.534,1.318,15.678,15.678,0,0,1,3.066-4.673,7.6,7.6,0,0,1,4.319-2.036A10.575,10.575,0,0,1,453.884,251.167Z" transform="translate(-361.227 -197.606)" fill="#fff"/>
      <path id="Path_34" data-name="Path 34" d="M439.766,205.67a7.9,7.9,0,0,0,3.167,3.343,8.872,8.872,0,0,0-.528-5.42,5.661,5.661,0,0,0-3.566-2.762A11.857,11.857,0,0,0,439.766,205.67Z" transform="translate(-352.565 -161.385)" fill="#fff"/>
      <path id="Path_35" data-name="Path 35" d="M465.842,208.038a5.658,5.658,0,0,1-4.222,2.111,16.009,16.009,0,0,1,2.226-5.139,7.642,7.642,0,0,1,3.89-2.781A10.646,10.646,0,0,1,465.842,208.038Z" transform="translate(-371.338 -162.525)" fill="#fff"/>
      <path id="Path_36" data-name="Path 36" d="M439.094,171.83a7.722,7.722,0,0,0,3.665,2.732,8.812,8.812,0,0,0-1.434-5.255,5.594,5.594,0,0,0-3.965-2.1A12.137,12.137,0,0,0,439.094,171.83Z" transform="translate(-351.346 -134.41)" fill="#fff"/>
      <path id="Path_37" data-name="Path 37" d="M471.291,164.284a5.674,5.674,0,0,1-3.781,2.832,16.481,16.481,0,0,1,1.314-5.473,7.749,7.749,0,0,1,3.327-3.454A10.773,10.773,0,0,1,471.291,164.284Z" transform="translate(-376.192 -127.084)" fill="#fff"/>
      <path id="Path_38" data-name="Path 38" d="M432.515,138.088a7.6,7.6,0,0,0,4.055,2.048,8.854,8.854,0,0,0-2.321-4.963,5.5,5.5,0,0,0-4.25-1.381A12.287,12.287,0,0,0,432.515,138.088Z" transform="translate(-345.281 -107.559)" fill="#fff"/>
      <path id="Path_39" data-name="Path 39" d="M469.578,121.09a5.707,5.707,0,0,1-3.207,3.489,17.131,17.131,0,0,1,.327-5.672,7.751,7.751,0,0,1,2.639-4.038A11.054,11.054,0,0,1,469.578,121.09Z" transform="translate(-375.169 -92.254)" fill="#fff"/>
      <path id="Path_40" data-name="Path 40" d="M419.685,104.822a7.486,7.486,0,0,0,4.346,1.318,9.059,9.059,0,0,0-3.193-4.546,5.521,5.521,0,0,0-4.448-.633A13.242,13.242,0,0,0,419.685,104.822Z" transform="translate(-334.066 -81.042)" fill="#fff"/>
      <path id="Path_41" data-name="Path 41" d="M458.276,79.515a5.721,5.721,0,0,1-2.5,4.057,18.307,18.307,0,0,1-.734-5.728,7.85,7.85,0,0,1,1.8-4.514C456.856,73.3,458.705,76.6,458.276,79.515Z" transform="translate(-365.894 -58.879)" fill="#fff"/>
      <path id="Path_42" data-name="Path 42" d="M400.551,72.817a7.4,7.4,0,0,0,4.528.559,9.468,9.468,0,0,0-4.046-4.013,5.454,5.454,0,0,0-4.523.13A14.39,14.39,0,0,0,400.551,72.817Z" transform="translate(-317.683 -55.466)" fill="#fff"/>
      <path id="Path_43" data-name="Path 43" d="M437.334,40.664a5.716,5.716,0,0,1-1.656,4.514,20.44,20.44,0,0,1-1.868-5.63,8,8,0,0,1,.827-4.87C434.648,34.645,437.17,37.664,437.334,40.664Z" transform="translate(-348.36 -28.577)" fill="#fff"/>
      <path id="Path_44" data-name="Path 44" d="M374.78,42.859a7.257,7.257,0,0,0,4.6-.215,10.155,10.155,0,0,0-4.891-3.367,5.348,5.348,0,0,0-4.49.894A15.745,15.745,0,0,0,374.78,42.859Z" transform="translate(-295.837 -32.234)" fill="#fff"/>
      <path id="Path_45" data-name="Path 45" d="M406.6,5.614a5.747,5.747,0,0,1-.672,4.85,23.27,23.27,0,0,1-3.081-5.38A8.3,8.3,0,0,1,402.56,0C402.568-.035,405.79,2.609,406.6,5.614Z" transform="translate(-322.454 0.002)" fill="#fff"/>
      <path id="Path_46" data-name="Path 46" d="M244,102.521l.049-.608a30.4,30.4,0,0,0,13.4-1.67,34.536,34.536,0,0,0,11.708-7.158,43.044,43.044,0,0,0,13.253-26.89c1.022-8.717.5-16.487-1.559-23.088a30.454,30.454,0,0,0-11.684-16.487l.289-.518a31.051,31.051,0,0,1,11.914,16.809c2.083,6.7,2.616,14.556,1.583,23.369a43.738,43.738,0,0,1-13.448,27.283,35.06,35.06,0,0,1-11.9,7.262A30.848,30.848,0,0,1,244,102.521Z" transform="translate(-192.004 -21.508)" fill="#fff"/>
      <path id="Path_47" data-name="Path 47" d="M96.926,2.105A8.292,8.292,0,0,0,94.62,6.68,8.3,8.3,0,0,0,99.391,4.8,8.278,8.278,0,0,0,101.7.23,8.3,8.3,0,0,0,96.926,2.105Z" transform="translate(-76.09 -0.189)" fill="#fff"/>
      <path id="Path_48" data-name="Path 48" d="M165.413,368.238a8.684,8.684,0,0,1,1.761,4.715c0,.032-3.531-.957-5.118-3.343a6.121,6.121,0,0,1-.837-4.78A14.651,14.651,0,0,1,165.413,368.238Z" transform="translate(-129.552 -292.706)" fill="#fff"/>
      <path id="Path_49" data-name="Path 49" d="M141.02,410.122a6.008,6.008,0,0,0,4.261-2.854,19.51,19.51,0,0,0-6.228-.612,7.929,7.929,0,0,0-4.6,2.169A11.693,11.693,0,0,0,141.02,410.122Z" transform="translate(-107.997 -327.115)" fill="#fff"/>
      <path id="Path_50" data-name="Path 50" d="M132.884,350.157A8.547,8.547,0,0,1,133.6,355a9.21,9.21,0,0,1-4.152-4.08,6.094,6.094,0,0,1,.121-4.762A13.453,13.453,0,0,1,132.884,350.157Z" transform="translate(-103.827 -277.321)" fill="#fff"/>
      <path id="Path_51" data-name="Path 51" d="M101.489,390.267a5.922,5.922,0,0,0,4.551-2.043,17.6,17.6,0,0,0-5.732-1.634,7.774,7.774,0,0,0-4.78,1.321A10.955,10.955,0,0,0,101.489,390.267Z" transform="translate(-76.736 -310.629)" fill="#fff"/>
      <path id="Path_52" data-name="Path 52" d="M104.233,327.342a8.482,8.482,0,0,1-.238,4.81,8.9,8.9,0,0,1-3.2-4.655,6.125,6.125,0,0,1,1-4.6A12.662,12.662,0,0,1,104.233,327.342Z" transform="translate(-81.047 -258.153)" fill="#fff"/>
      <path id="Path_53" data-name="Path 53" d="M68.217,363.348a5.806,5.806,0,0,0,4.726-1.205,16.636,16.636,0,0,0-5.169-2.556,7.674,7.674,0,0,0-4.847.459A10.478,10.478,0,0,0,68.217,363.348Z" transform="translate(-51.853 -288.221)" fill="#fff"/>
      <path id="Path_54" data-name="Path 54" d="M79.982,300.655a8.4,8.4,0,0,1-1.108,4.625,8.815,8.815,0,0,1-2.248-5.072,6.07,6.07,0,0,1,1.782-4.3A12.183,12.183,0,0,1,79.982,300.655Z" transform="translate(-63.141 -237.683)" fill="#fff"/>
      <path id="Path_55" data-name="Path 55" d="M41.3,330.47a5.711,5.711,0,0,0,4.784-.352,16.075,16.075,0,0,0-4.537-3.374,7.6,7.6,0,0,0-4.8-.4A10.462,10.462,0,0,0,41.3,330.47Z" transform="translate(-30.282 -262.399)" fill="#fff"/>
      <path id="Path_56" data-name="Path 56" d="M60.454,270.927a8.269,8.269,0,0,1-1.893,4.307A8.827,8.827,0,0,1,57.25,269.9a5.938,5.938,0,0,1,2.474-3.879A11.831,11.831,0,0,1,60.454,270.927Z" transform="translate(-47.123 -213.688)" fill="#fff"/>
      <path id="Path_57" data-name="Path 57" d="M21.134,292.646a5.658,5.658,0,0,0,4.72.494,15.661,15.661,0,0,0-3.837-4.083,7.577,7.577,0,0,0-4.62-1.232A10.515,10.515,0,0,0,21.134,292.646Z" transform="translate(-14.334 -231.495)" fill="#fff"/>
      <path id="Path_58" data-name="Path 58" d="M45.954,238.945a8.123,8.123,0,0,1-2.576,3.87,8.742,8.742,0,0,1-.384-5.454A5.835,5.835,0,0,1,46.063,234,11.946,11.946,0,0,1,45.954,238.945Z" transform="translate(-35.181 -187.995)" fill="#fff"/>
      <path id="Path_59" data-name="Path 59" d="M7.918,251.167a5.63,5.63,0,0,0,4.534,1.318,15.757,15.757,0,0,0-3.066-4.673,7.6,7.6,0,0,0-4.319-2.036A10.545,10.545,0,0,0,7.918,251.167Z" transform="translate(-4.172 -197.606)" fill="#fff"/>
      <path id="Path_60" data-name="Path 60" d="M36.467,205.67a7.894,7.894,0,0,1-3.167,3.343,8.8,8.8,0,0,1,.528-5.42A5.679,5.679,0,0,1,37.4,200.83,11.874,11.874,0,0,1,36.467,205.67Z" transform="translate(-27.267 -161.385)" fill="#fff"/>
      <path id="Path_61" data-name="Path 61" d="M1.886,208.005a5.656,5.656,0,0,0,4.222,2.111,16.033,16.033,0,0,0-2.227-5.139A7.7,7.7,0,0,0-.01,202.189,10.715,10.715,0,0,0,1.886,208.005Z" transform="translate(0.013 -162.493)" fill="#fff"/>
      <path id="Path_62" data-name="Path 62" d="M31.95,171.8a7.713,7.713,0,0,1-3.663,2.732,8.812,8.812,0,0,1,1.434-5.255,5.619,5.619,0,0,1,3.958-2.1A11.923,11.923,0,0,1,31.95,171.8Z" transform="translate(-23.297 -134.377)" fill="#fff"/>
      <path id="Path_63" data-name="Path 63" d="M2.8,164.284a5.674,5.674,0,0,0,3.781,2.832,16.48,16.48,0,0,0-1.314-5.473,7.739,7.739,0,0,0-3.329-3.454A10.8,10.8,0,0,0,2.8,164.284Z" transform="translate(-1.503 -127.084)" fill="#fff"/>
      <path id="Path_64" data-name="Path 64" d="M33.059,138.1A7.6,7.6,0,0,1,29,140.144a8.862,8.862,0,0,1,2.322-4.963,5.527,5.527,0,0,1,4.259-1.381A12.371,12.371,0,0,1,33.059,138.1Z" transform="translate(-23.891 -107.567)" fill="#fff"/>
      <path id="Path_65" data-name="Path 65" d="M9.587,121.09a5.712,5.712,0,0,0,3.209,3.489,17.131,17.131,0,0,0-.327-5.672,7.751,7.751,0,0,0-2.639-4.038A11.046,11.046,0,0,0,9.587,121.09Z" transform="translate(-7.595 -92.254)" fill="#fff"/>
      <path id="Path_66" data-name="Path 66" d="M40.914,104.852a7.493,7.493,0,0,1-4.347,1.318,9.068,9.068,0,0,1,3.195-4.546A5.521,5.521,0,0,1,44.208,101,13.361,13.361,0,0,1,40.914,104.852Z" transform="translate(-30.131 -81.071)" fill="#fff"/>
      <path id="Path_67" data-name="Path 67" d="M22.548,79.515a5.714,5.714,0,0,0,2.5,4.057,18.366,18.366,0,0,0,.734-5.728,7.863,7.863,0,0,0-1.8-4.514C23.967,73.3,22.127,76.6,22.548,79.515Z" transform="translate(-18.527 -58.879)" fill="#fff"/>
      <path id="Path_68" data-name="Path 68" d="M55.7,72.817a7.389,7.389,0,0,1-4.527.559,9.456,9.456,0,0,1,4.046-4.013,5.454,5.454,0,0,1,4.523.13A14.44,14.44,0,0,1,55.7,72.817Z" transform="translate(-42.171 -55.466)" fill="#fff"/>
      <path id="Path_69" data-name="Path 69" d="M42.155,40.664a5.716,5.716,0,0,0,1.656,4.514,20.442,20.442,0,0,0,1.868-5.63,8.02,8.02,0,0,0-.827-4.87C44.84,34.645,42.319,37.664,42.155,40.664Z" transform="translate(-34.727 -28.577)" fill="#fff"/>
      <path id="Path_70" data-name="Path 70" d="M77.678,42.859a7.257,7.257,0,0,1-4.6-.215,10.155,10.155,0,0,1,4.891-3.367,5.348,5.348,0,0,1,4.49.894A15.746,15.746,0,0,1,77.678,42.859Z" transform="translate(-60.218 -32.234)" fill="#fff"/>
      <path id="Path_71" data-name="Path 71" d="M68.5,5.614a5.747,5.747,0,0,0,.672,4.85,23.36,23.36,0,0,0,3.084-5.38A8.267,8.267,0,0,0,72.545,0C72.536-.035,69.313,2.609,68.5,5.614Z" transform="translate(-56.248 0.002)" fill="#fff"/>
      <path id="Path_72" data-name="Path 72" d="M67.506,102.521l-.049-.608a30.4,30.4,0,0,1-13.392-1.67,34.556,34.556,0,0,1-11.717-7.158A43.05,43.05,0,0,1,29.1,66.194c-1.022-8.717-.5-16.487,1.559-23.088A30.445,30.445,0,0,1,42.339,26.618l-.29-.518A31.093,31.093,0,0,0,30.128,42.913c-2.083,6.7-2.616,14.556-1.583,23.369A43.738,43.738,0,0,0,41.993,93.565a35.072,35.072,0,0,0,11.895,7.262,30.855,30.855,0,0,0,13.619,1.694Z" transform="translate(-23.099 -21.508)" fill="#fff"/>
      <path id="Path_73" data-name="Path 73" d="M227.873,399.58l-4.143,3.047,4.143,3.045,4.141-3.045Z" transform="translate(-179.852 -321.342)" fill="#fff"/>
    </g>
  </g>
  <g id="Layer_2-2" data-name="Layer 2" transform="translate(31.313 20.172)">
    <g id="Object-2" data-name="Object" transform="translate(0 0)">
      <path id="Path_168" data-name="Path 168" d="M65.976,17.972c1.93-3.583,2.021-11.632,1.977-14.8h0V1.859a60.943,60.943,0,0,0-18.99,0s-.48,11.6,1.947,16.112a18.318,18.318,0,0,0,5.978,6.16.413.413,0,0,0-.3.4v.593a.416.416,0,0,0,.418.416h.377v5.579l-1.034,1.773H55.178l-2.123,2.138v3.5H52v.831H64.875v-.831h-1.04V35l-2.2-2.111H60.547l-1.031-1.781h0v-5.57h.214a.416.416,0,0,0,.418-.416v-.593a.415.415,0,0,0-.2-.357A18.339,18.339,0,0,0,65.976,17.972Z" transform="translate(-41.548 -0.954)" fill="#fff"/>
      <path id="Path_169" data-name="Path 169" d="M63.949,38.624H51.073a.167.167,0,0,1-.167-.166v-.831a.167.167,0,0,1,.167-.167h.881V34.121A.163.163,0,0,1,52,34l2.123-2.144a.17.17,0,0,1,.119-.05h1.069l.964-1.659V24.8h-.2a.585.585,0,0,1-.585-.584v-.593a.575.575,0,0,1,.151-.4,18.173,18.173,0,0,1-5.821-6.079c-1.012-1.892-1.653-5.19-1.9-9.818-.181-3.432-.062-6.351-.06-6.38A.169.169,0,0,1,48,.8,61.1,61.1,0,0,1,67.048.8a.169.169,0,0,1,.142.166V2.276c.045,3.272-.057,11.276-2,14.876l-.151-.078.151.078A18.543,18.543,0,0,1,59.272,23.3a.565.565,0,0,1,.1.33v.593a.584.584,0,0,1-.584.584h-.047v5.347l.964,1.666H60.7a.167.167,0,0,1,.116.047l2.2,2.111a.164.164,0,0,1,.051.121v3.367h.881a.167.167,0,0,1,.167.167v.831a.166.166,0,0,1-.167.161ZM51.24,38.29H63.782v-.5H62.9a.167.167,0,0,1-.167-.166V34.158l-2.1-2.018H59.614a.167.167,0,0,1-.151-.083L58.445,30.3a.166.166,0,0,1-.039-.106V24.63a.166.166,0,0,1,.167-.166h.214a.25.25,0,0,0,.25-.25v-.593a.25.25,0,0,0-.122-.213.166.166,0,0,1-.006-.282,18.357,18.357,0,0,0,5.984-6.139c1.9-3.533,2-11.469,1.96-14.718V1.1a60.639,60.639,0,0,0-18.659,0c-.044,1.315-.311,11.732,1.93,15.891a17.913,17.913,0,0,0,5.922,6.1.164.164,0,0,1-.044.3.249.249,0,0,0-.176.237v.593a.25.25,0,0,0,.25.25h.371a.166.166,0,0,1,.167.166v5.579a.163.163,0,0,1-.023.083L55.558,32.07a.169.169,0,0,1-.151.083H54.315L52.288,34.2v3.432a.167.167,0,0,1-.167.166H51.24Z" transform="translate(-40.614 -0.048)" fill="#fff"/>
      <path id="Path_170" data-name="Path 170" d="M172.01,10.9a3.553,3.553,0,0,0-4.744,1.93,3.3,3.3,0,0,0,0,2.613A2.88,2.88,0,0,0,169,16.964a.455.455,0,1,0,.29-.863,1.972,1.972,0,0,1-1.1-.86,2.791,2.791,0,0,1-.1-.958,2.014,2.014,0,0,1,.063-.436,2.1,2.1,0,0,1,2.036-1.445,2.323,2.323,0,0,1,2.1,1.974,6.635,6.635,0,0,1-.1,3.581,12.911,12.911,0,0,1-3.375,3.986c-.234.2-.473.391-.715.582-.185.151-.38.287-.576.43a5.59,5.59,0,0,0-2.1,2.262,2.847,2.847,0,0,0,.151,2.435A2.309,2.309,0,0,0,167.6,28.91a2.233,2.233,0,0,0,.754-.128,2.046,2.046,0,0,0,1.537-2.4.456.456,0,1,0-.869.28c.2.624-.567,1.12-.973,1.262a1.363,1.363,0,0,1-1.659-.7,1.939,1.939,0,0,1-.109-1.659,4.78,4.78,0,0,1,1.8-1.877c.207-.151.41-.3.6-.452.249-.2.5-.4.737-.6,2.478-2.087,3.845-4.082,4.305-6.279C173.93,15.317,174.447,11.843,172.01,10.9Z" transform="translate(-140.303 -9.021)" fill="#fff"/>
      <path id="Path_171" data-name="Path 171" d="M166.693,28.132a2.469,2.469,0,0,1-2.17-1.342,3.016,3.016,0,0,1-.151-2.579,5.649,5.649,0,0,1,2.158-2.334c.2-.143.388-.282.57-.427.264-.208.5-.4.712-.578a12.8,12.8,0,0,0,3.327-3.921,6.453,6.453,0,0,0,.1-3.468,2.189,2.189,0,0,0-1.938-1.85,1.92,1.92,0,0,0-1.871,1.324,1.793,1.793,0,0,0-.057.4,2.6,2.6,0,0,0,.083.882,1.825,1.825,0,0,0,.991.766.621.621,0,1,1-.394,1.17,3.033,3.033,0,0,1-1.838-1.607,3.453,3.453,0,0,1,0-2.746A3.712,3.712,0,0,1,171.169,9.8c2.564.989,2.024,4.574,1.8,5.649-.467,2.235-1.853,4.258-4.361,6.371-.235.2-.478.4-.742.6-.193.151-.391.3-.6.452a4.593,4.593,0,0,0-1.74,1.81,1.77,1.77,0,0,0,.1,1.508,1.206,1.206,0,0,0,1.461.624c.341-.119,1.033-.552.87-1.056a.623.623,0,0,1,.873-.754.612.612,0,0,1,.312.362,2.206,2.206,0,0,1-1.639,2.61,2.413,2.413,0,0,1-.8.139Zm2.564-16.839h.05a2.46,2.46,0,0,1,2.253,2.1,6.786,6.786,0,0,1-.106,3.672.1.1,0,0,1-.011.027,13.075,13.075,0,0,1-3.416,4.038c-.219.184-.452.375-.719.585-.187.151-.382.29-.579.433a5.455,5.455,0,0,0-2.048,2.194,2.683,2.683,0,0,0,.142,2.292,2.138,2.138,0,0,0,1.87,1.169h0a2.111,2.111,0,0,0,.691-.119,1.884,1.884,0,0,0,1.434-2.193.3.3,0,0,0-.369-.185.287.287,0,0,0-.185.363c.232.713-.537,1.28-1.077,1.472a1.539,1.539,0,0,1-1.867-.781,2.1,2.1,0,0,1-.115-1.8,4.852,4.852,0,0,1,1.852-1.948c.2-.151.406-.3.6-.452.262-.207.5-.4.734-.6,2.447-2.063,3.8-4.028,4.248-6.183.211-1.01.721-4.373-1.592-5.27h0a3.383,3.383,0,0,0-4.524,1.838,3.129,3.129,0,0,0,0,2.481,2.714,2.714,0,0,0,1.638,1.431.288.288,0,1,0,.184-.546,2.158,2.158,0,0,1-1.2-.924.229.229,0,0,1-.017-.041,3,3,0,0,1-.1-1.015,2.351,2.351,0,0,1,.069-.469,2.261,2.261,0,0,1,2.149-1.565Z" transform="translate(-139.4 -8.076)" fill="#fff"/>
      <path id="Path_172" data-name="Path 172" d="M9.592,25.22a5.56,5.56,0,0,0-2.1-2.262c-.2-.143-.391-.283-.576-.43-.241-.192-.481-.385-.715-.582a12.9,12.9,0,0,1-3.375-3.986,6.635,6.635,0,0,1-.1-3.581,2.317,2.317,0,0,1,2.1-1.974A2.1,2.1,0,0,1,6.854,13.85a2.013,2.013,0,0,1,.063.442,2.791,2.791,0,0,1-.1.95,1.972,1.972,0,0,1-1.1.86.455.455,0,0,0,.29.863,2.88,2.88,0,0,0,1.737-1.52,3.3,3.3,0,0,0,0-2.613A3.554,3.554,0,0,0,3,10.9c-2.437.942-1.914,4.417-1.7,5.459.46,2.2,1.828,4.192,4.307,6.279.241.205.489.4.737.6.195.151.4.3.6.452a4.678,4.678,0,0,1,1.8,1.877,1.939,1.939,0,0,1-.109,1.659,1.367,1.367,0,0,1-1.659.7c-.406-.142-1.176-.638-.973-1.262a.456.456,0,0,0-.869-.28,2.046,2.046,0,0,0,1.537,2.4,2.233,2.233,0,0,0,.746.128,2.309,2.309,0,0,0,2.024-1.255,2.847,2.847,0,0,0,.145-2.443Z" transform="translate(-0.939 -9.021)" fill="#fff"/>
      <path id="Path_173" data-name="Path 173" d="M6.487,28.132h0a2.413,2.413,0,0,1-.8-.139,2.206,2.206,0,0,1-1.639-2.61.623.623,0,1,1,1.185.386c-.163.5.529.933.87,1.056A1.209,1.209,0,0,0,7.562,26.2a1.77,1.77,0,0,0,.1-1.508,4.6,4.6,0,0,0-1.74-1.81c-.219-.151-.415-.3-.6-.452-.264-.208-.507-.406-.742-.6-2.517-2.12-3.9-4.144-4.37-6.379-.225-1.075-.754-4.66,1.8-5.649a3.714,3.714,0,0,1,4.958,2.022,3.453,3.453,0,0,1,0,2.746A3.032,3.032,0,0,1,5.13,16.175a.6.6,0,0,1-.477-.033.62.62,0,0,1,.077-1.137,1.825,1.825,0,0,0,1-.774,2.6,2.6,0,0,0,.081-.885,1.82,1.82,0,0,0-.057-.4,1.914,1.914,0,0,0-1.871-1.322,2.189,2.189,0,0,0-1.938,1.85,6.453,6.453,0,0,0,.1,3.468,12.8,12.8,0,0,0,3.327,3.921c.219.182.452.372.712.578.181.151.369.28.559.419A5.72,5.72,0,0,1,8.813,24.2h0a3.016,3.016,0,0,1-.151,2.579A2.469,2.469,0,0,1,6.487,28.132ZM4.634,25.288a.3.3,0,0,0-.128.03.287.287,0,0,0-.151.169,1.883,1.883,0,0,0,1.433,2.193,2.111,2.111,0,0,0,.691.119h0A2.137,2.137,0,0,0,8.354,26.63,2.683,2.683,0,0,0,8.5,24.338h0a5.362,5.362,0,0,0-2.039-2.193c-.2-.151-.4-.29-.581-.434-.264-.208-.5-.4-.719-.585A13.166,13.166,0,0,1,1.74,17.088a.191.191,0,0,1-.009-.027,6.786,6.786,0,0,1-.106-3.672,2.458,2.458,0,0,1,2.253-2.1,2.266,2.266,0,0,1,2.2,1.565,2.351,2.351,0,0,1,.069.469,3,3,0,0,1-.1,1.015.231.231,0,0,1-.017.041,2.158,2.158,0,0,1-1.194.932.288.288,0,1,0,.184.546,2.714,2.714,0,0,0,1.638-1.431,3.129,3.129,0,0,0,0-2.481A3.391,3.391,0,0,0,2.135,10.11C-.178,11,.326,14.37.543,15.388c.452,2.158,1.8,4.123,4.248,6.183.232.195.472.391.734.6.188.151.383.291.6.452a4.866,4.866,0,0,1,1.852,1.95,2.1,2.1,0,0,1-.115,1.8A1.539,1.539,0,0,1,6,27.153c-.54-.192-1.309-.754-1.077-1.472a.287.287,0,0,0-.185-.363.3.3,0,0,0-.1-.03Z" transform="translate(-0.004 -8.076)" fill="#fff"/>
    </g>
  </g>
</svg>
