<svg id="Group_58" data-name="Group 58" xmlns="http://www.w3.org/2000/svg" width="96.405" height="84.326" viewBox="0 0 96.405 84.326">
  <g id="Layer_2" data-name="Layer 2">
    <g id="Object">
      <path id="Path_21" data-name="Path 21" d="M366.817,2.3a9.143,9.143,0,0,1,2.544,5.049,9.166,9.166,0,0,1-5.267-2.07A9.128,9.128,0,0,1,361.55.23,9.162,9.162,0,0,1,366.817,2.3Z" transform="translate(-291.333 -0.185)" fill="#fff"/>
      <path id="Path_22" data-name="Path 22" d="M302.483,368.592a9.624,9.624,0,0,0-1.944,5.2c0,.035,3.9-1.056,5.649-3.69a6.767,6.767,0,0,0,.924-5.277A16.145,16.145,0,0,0,302.483,368.592Z" transform="translate(-242.168 -293.978)" fill="#fff"/>
      <path id="Path_23" data-name="Path 23" d="M305.124,410.489a6.62,6.62,0,0,1-4.7-3.15,21.527,21.527,0,0,1,6.875-.676,8.753,8.753,0,0,1,5.073,2.395C312.412,409.069,308.588,411.085,305.124,410.489Z" transform="translate(-242.075 -327.624)" fill="#fff"/>
      <path id="Path_24" data-name="Path 24" d="M341.744,350.572a9.434,9.434,0,0,0-.794,5.348c0,.037,3.428-1.666,4.583-4.5a6.712,6.712,0,0,0-.136-5.257A14.686,14.686,0,0,0,341.744,350.572Z" transform="translate(-274.655 -278.934)" fill="#fff"/>
      <path id="Path_25" data-name="Path 25" d="M346.154,390.65a6.531,6.531,0,0,1-5.024-2.255,19.412,19.412,0,0,1,6.327-1.8,8.582,8.582,0,0,1,5.276,1.458C352.774,388.054,349.518,390.648,346.154,390.65Z" transform="translate(-274.879 -311.504)" fill="#fff"/>
      <path id="Path_26" data-name="Path 26" d="M374.45,327.8a9.363,9.363,0,0,0,.262,5.31,9.829,9.829,0,0,0,3.529-5.139,6.748,6.748,0,0,0-1.1-5.075A13.955,13.955,0,0,0,374.45,327.8Z" transform="translate(-301.514 -260.191)" fill="#fff"/>
      <path id="Path_27" data-name="Path 27" d="M381.806,363.761a6.409,6.409,0,0,1-5.216-1.33,18.364,18.364,0,0,1,5.706-2.822,8.475,8.475,0,0,1,5.35.507C387.687,360.112,385.02,363.186,381.806,363.761Z" transform="translate(-303.452 -289.594)" fill="#fff"/>
      <path id="Path_28" data-name="Path 28" d="M400.639,301.148a9.277,9.277,0,0,0,1.225,5.106,9.718,9.718,0,0,0,2.482-5.6,6.7,6.7,0,0,0-1.965-4.744A13.316,13.316,0,0,0,400.639,301.148Z" transform="translate(-322.821 -238.443)" fill="#fff"/>
      <path id="Path_29" data-name="Path 29" d="M411.88,330.921a6.3,6.3,0,0,1-5.28-.388,17.712,17.712,0,0,1,5.008-3.725,8.389,8.389,0,0,1,5.294-.441C416.939,326.355,414.883,329.81,411.88,330.921Z" transform="translate(-327.634 -262.794)" fill="#fff"/>
      <path id="Path_30" data-name="Path 30" d="M420.441,271.436a9.127,9.127,0,0,0,2.086,4.754,9.66,9.66,0,0,0,1.445-5.888,6.564,6.564,0,0,0-2.729-4.282A13.2,13.2,0,0,0,420.441,271.436Z" transform="translate(-338.751 -214.357)" fill="#fff"/>
      <path id="Path_31" data-name="Path 31" d="M436.14,293.148a6.246,6.246,0,0,1-5.21.546,17.25,17.25,0,0,1,4.236-4.508,8.365,8.365,0,0,1,5.1-1.359C440.3,287.805,438.873,291.538,436.14,293.148Z" transform="translate(-347.239 -231.917)" fill="#fff"/>
      <path id="Path_32" data-name="Path 32" d="M433.7,239.459a8.967,8.967,0,0,0,2.843,4.272,9.65,9.65,0,0,0,.423-6.02A6.441,6.441,0,0,0,433.577,234,13.187,13.187,0,0,0,433.7,239.459Z" transform="translate(-349.181 -188.556)" fill="#fff"/>
      <path id="Path_33" data-name="Path 33" d="M454.355,251.727a6.214,6.214,0,0,1-5,1.455,17.3,17.3,0,0,1,3.385-5.158,8.391,8.391,0,0,1,4.768-2.247C457.532,245.758,456.757,249.675,454.355,251.727Z" transform="translate(-362.082 -198.045)" fill="#fff"/>
      <path id="Path_34" data-name="Path 34" d="M439.862,206.173a8.724,8.724,0,0,0,3.5,3.69,9.793,9.793,0,0,0-.583-5.983,6.249,6.249,0,0,0-3.937-3.049A13.09,13.09,0,0,0,439.862,206.173Z" transform="translate(-353.612 -161.828)" fill="#fff"/>
      <path id="Path_35" data-name="Path 35" d="M466.281,208.642a6.245,6.245,0,0,1-4.661,2.33,17.671,17.671,0,0,1,2.457-5.673,8.436,8.436,0,0,1,4.294-3.07C468.4,202.2,468.3,206.2,466.281,208.642Z" transform="translate(-371.969 -162.955)" fill="#fff"/>
      <path id="Path_36" data-name="Path 36" d="M439.275,172.31a8.524,8.524,0,0,0,4.045,3.016,9.727,9.727,0,0,0-1.583-5.8,6.175,6.175,0,0,0-4.377-2.315A13.4,13.4,0,0,0,439.275,172.31Z" transform="translate(-352.42 -134.737)" fill="#fff"/>
      <path id="Path_37" data-name="Path 37" d="M471.683,164.917a6.263,6.263,0,0,1-4.173,3.127A18.191,18.191,0,0,1,468.961,162a8.554,8.554,0,0,1,3.672-3.812C472.654,158.162,473.249,162.143,471.683,164.917Z" transform="translate(-376.715 -127.468)" fill="#fff"/>
      <path id="Path_38" data-name="Path 38" d="M432.777,138.538a8.392,8.392,0,0,0,4.476,2.261,9.773,9.773,0,0,0-2.562-5.479A6.069,6.069,0,0,0,430,133.8,13.563,13.563,0,0,0,432.777,138.538Z" transform="translate(-346.489 -107.783)" fill="#fff"/>
      <path id="Path_39" data-name="Path 39" d="M469.921,121.736a6.3,6.3,0,0,1-3.54,3.851,18.912,18.912,0,0,1,.361-6.261,8.557,8.557,0,0,1,2.913-4.457C469.667,114.838,470.968,118.7,469.921,121.736Z" transform="translate(-375.714 -92.561)" fill="#fff"/>
      <path id="Path_40" data-name="Path 40" d="M420.027,105.245a8.264,8.264,0,0,0,4.8,1.455,10,10,0,0,0-3.525-5.018,6.094,6.094,0,0,0-4.909-.7A14.618,14.618,0,0,0,420.027,105.245Z" transform="translate(-335.523 -81.183)" fill="#fff"/>
      <path id="Path_41" data-name="Path 41" d="M458.615,80.157a6.316,6.316,0,0,1-2.762,4.478,20.2,20.2,0,0,1-.81-6.323,8.665,8.665,0,0,1,1.987-4.983C457.048,73.3,459.089,76.943,458.615,80.157Z" transform="translate(-366.645 -59.088)" fill="#fff"/>
      <path id="Path_42" data-name="Path 42" d="M400.971,73.22a8.166,8.166,0,0,0,5,.618,10.451,10.451,0,0,0-4.467-4.43,6.02,6.02,0,0,0-4.993.144A15.884,15.884,0,0,0,400.971,73.22Z" transform="translate(-319.504 -55.547)" fill="#fff"/>
      <path id="Path_43" data-name="Path 43" d="M437.708,41.286a6.31,6.31,0,0,1-1.827,4.983,22.564,22.564,0,0,1-2.062-6.215,8.837,8.837,0,0,1,.913-5.376C434.742,34.642,437.527,37.974,437.708,41.286Z" transform="translate(-349.5 -27.943)" fill="#fff"/>
      <path id="Path_44" data-name="Path 44" d="M375.277,43.248a8.011,8.011,0,0,0,5.078-.237,11.21,11.21,0,0,0-5.4-3.717A5.9,5.9,0,0,0,370,40.28,17.381,17.381,0,0,0,375.277,43.248Z" transform="translate(-298.142 -31.519)" fill="#fff"/>
      <path id="Path_45" data-name="Path 45" d="M407.048,6.2a6.344,6.344,0,0,1-.742,5.354,25.688,25.688,0,0,1-3.4-5.939A9.162,9.162,0,0,1,402.587,0C402.6-.038,406.152,2.881,407.048,6.2Z" transform="translate(-324.168 0.002)" fill="#fff"/>
      <path id="Path_46" data-name="Path 46" d="M244,101.713l.054-.6a37.175,37.175,0,0,0,14.793-1.653,39.128,39.128,0,0,0,12.924-7.083A41.132,41.132,0,0,0,286.4,65.77c1.128-8.625.55-16.313-1.721-22.844a30.461,30.461,0,0,0-12.9-16.313l.318-.513a31.059,31.059,0,0,1,13.152,16.632c2.3,6.624,2.888,14.4,1.748,23.122a41.8,41.8,0,0,1-14.845,26.994,39.73,39.73,0,0,1-13.132,7.186A37.728,37.728,0,0,1,244,101.713Z" transform="translate(-196.612 -21.031)" fill="#fff"/>
      <path id="Path_47" data-name="Path 47" d="M97.166,2.3A9.153,9.153,0,0,0,94.62,7.35a9.166,9.166,0,0,0,5.267-2.07A9.138,9.138,0,0,0,102.433.23,9.162,9.162,0,0,0,97.166,2.3Z" transform="translate(-76.242 -0.185)" fill="#fff"/>
      <path id="Path_48" data-name="Path 48" d="M165.866,368.592a9.586,9.586,0,0,1,1.944,5.2c0,.035-3.9-1.056-5.649-3.69a6.757,6.757,0,0,1-.924-5.277A16.173,16.173,0,0,1,165.866,368.592Z" transform="translate(-129.773 -293.978)" fill="#fff"/>
      <path id="Path_49" data-name="Path 49" d="M141.7,410.489a6.632,6.632,0,0,0,4.7-3.15,21.537,21.537,0,0,0-6.875-.676,8.752,8.752,0,0,0-5.073,2.395C134.412,409.069,138.237,411.085,141.7,410.489Z" transform="translate(-108.343 -327.624)" fill="#fff"/>
      <path id="Path_50" data-name="Path 50" d="M133.286,350.572a9.434,9.434,0,0,1,.794,5.348c0,.037-3.428-1.666-4.583-4.5a6.726,6.726,0,0,1,.134-5.257A14.85,14.85,0,0,1,133.286,350.572Z" transform="translate(-103.959 -278.934)" fill="#fff"/>
      <path id="Path_51" data-name="Path 51" d="M102.108,390.65a6.537,6.537,0,0,0,5.024-2.255,19.431,19.431,0,0,0-6.327-1.8,8.582,8.582,0,0,0-5.277,1.458C95.486,388.054,98.742,390.648,102.108,390.65Z" transform="translate(-76.973 -311.504)" fill="#fff"/>
      <path id="Path_52" data-name="Path 52" d="M104.6,327.8a9.363,9.363,0,0,1-.262,5.31,9.829,9.829,0,0,1-3.529-5.139,6.762,6.762,0,0,1,1.1-5.075A13.978,13.978,0,0,1,104.6,327.8Z" transform="translate(-81.13 -260.191)" fill="#fff"/>
      <path id="Path_53" data-name="Path 53" d="M68.767,363.76a6.409,6.409,0,0,0,5.216-1.33,18.363,18.363,0,0,0-5.706-2.822,8.471,8.471,0,0,0-5.35.507C62.877,360.111,65.543,363.185,68.767,363.76Z" transform="translate(-50.703 -289.593)" fill="#fff"/>
      <path id="Path_54" data-name="Path 54" d="M80.33,301.148a9.269,9.269,0,0,1-1.223,5.106,9.731,9.731,0,0,1-2.482-5.6,6.7,6.7,0,0,1,1.967-4.744A13.447,13.447,0,0,1,80.33,301.148Z" transform="translate(-61.741 -238.443)" fill="#fff"/>
      <path id="Path_55" data-name="Path 55" d="M41.772,330.921a6.3,6.3,0,0,0,5.28-.388,17.745,17.745,0,0,0-5.009-3.725,8.389,8.389,0,0,0-5.294-.441C36.742,326.386,38.77,329.81,41.772,330.921Z" transform="translate(-29.61 -262.794)" fill="#fff"/>
      <path id="Path_56" data-name="Path 56" d="M60.793,271.436a9.128,9.128,0,0,1-2.09,4.754,9.744,9.744,0,0,1-1.447-5.888,6.555,6.555,0,0,1,2.731-4.282A13.06,13.06,0,0,1,60.793,271.436Z" transform="translate(-46.078 -214.357)" fill="#fff"/>
      <path id="Path_57" data-name="Path 57" d="M21.523,293.148a6.246,6.246,0,0,0,5.211.546,17.287,17.287,0,0,0-4.236-4.507,8.365,8.365,0,0,0-5.1-1.359C17.365,287.805,18.79,291.538,21.523,293.148Z" transform="translate(-14.016 -231.917)" fill="#fff"/>
      <path id="Path_58" data-name="Path 58" d="M46.292,239.459a8.966,8.966,0,0,1-2.843,4.272,9.65,9.65,0,0,1-.423-6.02A6.441,6.441,0,0,1,46.413,234,13.187,13.187,0,0,1,46.292,239.459Z" transform="translate(-34.401 -188.556)" fill="#fff"/>
      <path id="Path_59" data-name="Path 59" d="M8.214,251.727a6.214,6.214,0,0,0,5,1.455,17.394,17.394,0,0,0-3.385-5.158,8.391,8.391,0,0,0-4.768-2.247C5.035,245.758,5.81,249.675,8.214,251.727Z" transform="translate(-4.079 -198.045)" fill="#fff"/>
      <path id="Path_60" data-name="Path 60" d="M36.818,206.173a8.714,8.714,0,0,1-3.5,3.69,9.713,9.713,0,0,1,.583-5.983,6.268,6.268,0,0,1,3.938-3.049A13.108,13.108,0,0,1,36.818,206.173Z" transform="translate(-26.662 -161.828)" fill="#fff"/>
      <path id="Path_61" data-name="Path 61" d="M2.083,208.61a6.244,6.244,0,0,0,4.661,2.33,17.7,17.7,0,0,0-2.459-5.673,8.5,8.5,0,0,0-4.3-3.078C-.033,202.166.069,206.165,2.083,208.61Z" transform="translate(0.013 -162.923)" fill="#fff"/>
      <path id="Path_62" data-name="Path 62" d="M32.331,172.278a8.514,8.514,0,0,1-4.043,3.016,9.727,9.727,0,0,1,1.583-5.8,6.2,6.2,0,0,1,4.37-2.323A13.161,13.161,0,0,1,32.331,172.278Z" transform="translate(-22.78 -134.705)" fill="#fff"/>
      <path id="Path_63" data-name="Path 63" d="M2.9,164.917a6.263,6.263,0,0,0,4.173,3.127A18.191,18.191,0,0,0,5.628,162a8.543,8.543,0,0,0-3.674-3.812C1.93,158.162,1.343,162.143,2.9,164.917Z" transform="translate(-1.469 -127.468)" fill="#fff"/>
      <path id="Path_64" data-name="Path 64" d="M33.481,138.545A8.388,8.388,0,0,1,29,140.806a9.782,9.782,0,0,1,2.563-5.479,6.1,6.1,0,0,1,4.7-1.525A13.656,13.656,0,0,1,33.481,138.545Z" transform="translate(-23.361 -107.79)" fill="#fff"/>
      <path id="Path_65" data-name="Path 65" d="M9.625,121.736a6.306,6.306,0,0,0,3.542,3.851,18.91,18.91,0,0,0-.361-6.261,8.556,8.556,0,0,0-2.913-4.457C9.879,114.838,8.58,118.7,9.625,121.736Z" transform="translate(-7.426 -92.561)" fill="#fff"/>
      <path id="Path_66" data-name="Path 66" d="M41.366,105.274a8.271,8.271,0,0,1-4.8,1.455,10.01,10.01,0,0,1,3.527-5.018A6.094,6.094,0,0,1,45,101.021,14.749,14.749,0,0,1,41.366,105.274Z" transform="translate(-29.462 -81.212)" fill="#fff"/>
      <path id="Path_67" data-name="Path 67" d="M22.554,80.157a6.308,6.308,0,0,0,2.762,4.478,20.273,20.273,0,0,0,.81-6.323,8.68,8.68,0,0,0-1.987-4.983C24.121,73.3,22.09,76.943,22.554,80.157Z" transform="translate(-18.116 -59.088)" fill="#fff"/>
      <path id="Path_68" data-name="Path 68" d="M56.174,73.22a8.157,8.157,0,0,1-5,.618,10.438,10.438,0,0,1,4.467-4.43,6.02,6.02,0,0,1,4.993.144A15.94,15.94,0,0,1,56.174,73.22Z" transform="translate(-41.236 -55.547)" fill="#fff"/>
      <path id="Path_69" data-name="Path 69" d="M42.156,41.286a6.309,6.309,0,0,0,1.827,4.983,22.565,22.565,0,0,0,2.062-6.215,8.853,8.853,0,0,0-.913-5.376C45.12,34.642,42.337,37.974,42.156,41.286Z" transform="translate(-33.956 -27.943)" fill="#fff"/>
      <path id="Path_70" data-name="Path 70" d="M78.156,43.248a8.011,8.011,0,0,1-5.078-.237,11.21,11.21,0,0,1,5.4-3.717,5.9,5.9,0,0,1,4.956.987A17.381,17.381,0,0,1,78.156,43.248Z" transform="translate(-58.883 -31.519)" fill="#fff"/>
      <path id="Path_71" data-name="Path 71" d="M68.529,6.2a6.343,6.343,0,0,0,.742,5.354,25.786,25.786,0,0,0,3.4-5.939A9.125,9.125,0,0,0,72.99,0C72.98-.038,69.423,2.881,68.529,6.2Z" transform="translate(-55.001 0.002)" fill="#fff"/>
      <path id="Path_72" data-name="Path 72" d="M71.606,101.713l-.054-.6a37.175,37.175,0,0,1-14.783-1.653,39.155,39.155,0,0,1-12.934-7.083A41.138,41.138,0,0,1,29.207,65.77c-1.128-8.625-.55-16.313,1.721-22.844a30.452,30.452,0,0,1,12.9-16.313L43.5,26.1A31.1,31.1,0,0,0,30.345,42.736c-2.3,6.624-2.888,14.4-1.748,23.122A41.8,41.8,0,0,0,43.443,92.852a39.742,39.742,0,0,0,13.13,7.186,37.738,37.738,0,0,0,15.033,1.676Z" transform="translate(-22.586 -21.031)" fill="#fff"/>
      <path id="Path_73" data-name="Path 73" d="M228.3,399.58l-4.574,3.364,4.574,3.362,4.572-3.362Z" transform="translate(-180.278 -321.979)" fill="#fff"/>
    </g>
  </g>
  <text id="_2" data-name="2" transform="translate(31.055 54.956)" fill="#fff" font-size="50" font-family="TimesNewRomanPSMT, Times New Roman"><tspan x="0" y="0">2</tspan></text>
  <text id="nd" transform="translate(56.776 26.099)" fill="#fff" font-size="16" font-family="TimesNewRomanPSMT, Times New Roman"><tspan x="0" y="0">nd</tspan></text>
</svg>
